control3min_grf.mot
version=1
nRows=15
nColumns 19
inDegrees=yes
endheader
time	1_ground_force_vx	1_ground_force_vy	1_ground_force_vz	1_ground_force_px	1_ground_force_py	1_ground_force_pz	1_ground_torque_x	1_ground_torque_y	1_ground_torque_z	2_ground_force_vx	2_ground_force_vy	2_ground_force_vz	2_ground_force_px	2_ground_force_py	2_ground_force_pz	2_ground_torque_x	2_ground_torque_y	2_ground_torque_z
            1.253500	           -3.478573	          603.465522	          -24.688971	           -0.288635	            0.006271	           -0.418991	           -0.012806	            2.221543	           -0.090888	           -4.831251	          640.018273	           22.511026	           -0.305041	            0.005224	           -0.653170	            0.011522	           -1.526343	           -0.053685
            1.254000	           -3.476918	          597.515863	          -24.485198	           -0.288841	            0.006272	           -0.419194	           -0.012721	            2.186051	           -0.089581	           -4.956679	          635.783686	           22.120548	           -0.305180	            0.005223	           -0.653269	            0.010554	           -1.353796	           -0.047102
            1.254500	           -3.292676	          593.369500	          -24.457576	           -0.288677	            0.006272	           -0.419199	           -0.012054	            2.172202	           -0.089534	           -4.661143	          631.734990	           21.683621	           -0.304815	            0.005224	           -0.653095	            0.009662	           -1.309483	           -0.044947
            1.255000	           -3.473416	          587.057641	          -23.888048	           -0.288844	            0.006274	           -0.419611	           -0.012388	            2.093689	           -0.085195	           -4.503519	          626.949269	           21.197196	           -0.304769	            0.005225	           -0.653244	            0.009476	           -1.319160	           -0.044601
            1.255500	           -3.838606	          582.910114	          -23.583924	           -0.288630	            0.006273	           -0.419246	           -0.012940	            1.965031	           -0.079503	           -4.344045	          621.612358	           20.380304	           -0.304694	            0.005224	           -0.652934	            0.009704	           -1.388599	           -0.045527
            1.256000	           -3.469949	          578.041272	          -23.193001	           -0.288128	            0.006272	           -0.419202	           -0.011612	            1.934314	           -0.077611	           -4.514932	          617.008818	           20.129317	           -0.304350	            0.005225	           -0.652864	            0.010019	           -1.369218	           -0.044669
            1.256500	           -3.331073	          571.911812	          -23.127911	           -0.288377	            0.006273	           -0.419445	           -0.011024	            1.892794	           -0.076544	           -4.635769	          611.485687	           19.593456	           -0.304544	            0.005223	           -0.652429	            0.009637	           -1.271120	           -0.040730
            1.257000	           -3.238954	          567.045473	          -23.332432	           -0.288272	            0.006274	           -0.419481	           -0.011098	            1.942872	           -0.079944	           -4.199663	          607.437331	           19.203396	           -0.304252	            0.005225	           -0.652675	            0.008836	           -1.278077	           -0.040405
            1.257500	           -2.779019	          562.537710	          -23.077759	           -0.288043	            0.006274	           -0.419441	           -0.009503	            1.923557	           -0.078913	           -4.371338	          603.018874	           18.671497	           -0.304066	            0.005225	           -0.652688	            0.008659	           -1.194504	           -0.036986
            1.258000	           -2.776941	          556.767439	          -22.689791	           -0.288010	            0.006274	           -0.419596	           -0.009152	            1.835046	           -0.074783	           -4.306646	          598.047898	           18.419096	           -0.304100	            0.005225	           -0.652567	            0.007863	           -1.091917	           -0.033630
            1.258500	           -2.912962	          550.998124	          -22.530760	           -0.288087	            0.006275	           -0.419807	           -0.009242	            1.748244	           -0.071487	           -4.475600	          592.892377	           18.025354	           -0.303837	            0.005225	           -0.652322	            0.008032	           -1.064058	           -0.032350
            1.259000	           -2.727775	          546.670014	          -22.137063	           -0.288026	            0.006275	           -0.419774	           -0.008662	            1.736031	           -0.070300	           -4.088359	          589.396503	           17.590357	           -0.303682	            0.005227	           -0.652776	            0.008353	           -1.204220	           -0.035940
            1.259500	           -2.817012	          541.980397	          -21.514950	           -0.287787	            0.006274	           -0.419487	           -0.008497	            1.634719	           -0.064893	           -3.975590	          584.058129	           17.101982	           -0.303691	            0.005226	           -0.652570	            0.008147	           -1.196847	           -0.035045
            1.260000	           -2.999543	          536.752824	          -21.582767	           -0.287815	            0.006275	           -0.419694	           -0.008361	            1.496176	           -0.060161	           -4.146416	          579.454087	           16.991779	           -0.303477	            0.005227	           -0.652557	            0.008656	           -1.209706	           -0.035473
            1.260500	           -2.677556	          530.804088	          -21.609071	           -0.287789	            0.006274	           -0.419560	           -0.007906	            1.567275	           -0.063804	           -3.987503	          574.300419	           16.410184	           -0.303368	            0.005227	           -0.652405	            0.007694	           -1.108114	           -0.031663
